<?xml version="1.0" encoding="UTF-8" standalone="no" ?>
<!DOCTYPE svg PUBLIC "-//W3C//DTD SVG 1.1//EN" "http://www.w3.org/Graphics/SVG/1.1/DTD/svg11.dtd">
<svg xmlns="http://www.w3.org/2000/svg" xmlns:xlink="http://www.w3.org/1999/xlink" version="1.1" width="1080" height="1080" viewBox="0 0 1080 1080" xml:space="preserve">
<desc>Created with Fabric.js 5.2.4</desc>
<defs>
</defs>
<g transform="matrix(1 0 0 1 540 540)" id="a5316d76-d623-410b-b76a-8b8695c1fc05"  >
</g>
<g transform="matrix(1 0 0 1 540 540)" id="f5d1c9a5-daa5-4317-94b6-bfe05531c23c"  >
<rect style="stroke: none; stroke-width: 1; stroke-dasharray: none; stroke-linecap: butt; stroke-dashoffset: 0; stroke-linejoin: miter; stroke-miterlimit: 4; fill: rgb(255,255,255); fill-rule: nonzero; opacity: 1; visibility: hidden;" vector-effect="non-scaling-stroke"  x="-540" y="-540" rx="0" ry="0" width="1080" height="1080" />
</g>
<g transform="matrix(1.83 0 0 1.83 540.46 540.13)"  >
<g style=""   >
		<g transform="matrix(1 0 0 1 -129.41 35.39)"  >
<path style="stroke: none; stroke-width: 1; stroke-dasharray: none; stroke-linecap: butt; stroke-dashoffset: 0; stroke-linejoin: miter; stroke-miterlimit: 4; fill: rgb(255,255,255); fill-rule: nonzero; opacity: 1;" vector-effect="non-scaling-stroke"  transform=" translate(-165.92, -117.39)" d="M 155.234 102.004 L 168.559 102.004 C 173.758 102.004 175.73499999999999 103.798 175.73499999999999 108.19200000000001 C 175.73499999999999 112.423 173.75699999999998 114.215 168.559 114.215 L 155.234 114.215 L 155.234 102.004 L 155.234 102.004 z M 134.591 146.447 L 155.235 146.447 L 155.235 128.375 L 177.347 128.375 C 191.98700000000002 128.375 197.258 119.751 197.258 108.601 C 197.258 95.658 191.83800000000002 88.334 177.198 88.334 L 134.591 88.334 L 134.591 146.447 L 134.591 146.447 z" stroke-linecap="round" />
</g>
		<g transform="matrix(1 0 0 1 -63.49 35.39)"  >
<polygon style="stroke: none; stroke-width: 1; stroke-dasharray: none; stroke-linecap: butt; stroke-dashoffset: 0; stroke-linejoin: miter; stroke-miterlimit: 4; fill: rgb(255,255,255); fill-rule: nonzero; opacity: 1;" vector-effect="non-scaling-stroke"  points="-27.78,-29.06 27.78,-29.06 27.78,-14.9 -7.14,-14.9 -7.14,-7.08 25.3,-7.08 25.3,7.08 -7.14,7.08 -7.14,14.89 27.78,14.89 27.78,29.06 -27.78,29.06 -27.78,-29.06 " />
</g>
		<g transform="matrix(1 0 0 1 4.26 35.39)"  >
<path style="stroke: none; stroke-width: 1; stroke-dasharray: none; stroke-linecap: butt; stroke-dashoffset: 0; stroke-linejoin: miter; stroke-miterlimit: 4; fill: rgb(255,255,255); fill-rule: nonzero; opacity: 1;" vector-effect="non-scaling-stroke"  transform=" translate(-299.6, -117.39)" d="M 288.912 102.004 L 302.236 102.004 C 307.43399999999997 102.004 309.412 103.798 309.412 108.19200000000001 C 309.412 112.423 307.43399999999997 114.215 302.236 114.215 L 288.912 114.215 L 288.912 102.004 L 288.912 102.004 z M 268.268 146.447 L 288.912 146.447 L 288.912 128.375 L 311.02 128.375 C 325.664 128.375 330.936 119.751 330.936 108.601 C 330.936 95.658 325.51599999999996 88.334 310.873 88.334 L 268.268 88.334 L 268.268 146.447 L 268.268 146.447 z" stroke-linecap="round" />
</g>
		<g transform="matrix(1 0 0 1 74.04 35.39)"  >
<path style="stroke: none; stroke-width: 1; stroke-dasharray: none; stroke-linecap: butt; stroke-dashoffset: 0; stroke-linejoin: miter; stroke-miterlimit: 4; fill: rgb(255,255,255); fill-rule: nonzero; opacity: 1;" vector-effect="non-scaling-stroke"  transform=" translate(-369.37, -117.39)" d="M 350.918 121.785 C 340.817 120.073 336.647 113.562 336.647 105.425 C 336.647 90.365 349.89799999999997 86.29899999999999 366.878 86.29899999999999 C 390.155 86.29899999999999 399.74699999999996 93.05199999999999 400.47999999999996 105.344 L 376.467 105.344 C 376.467 102.98299999999999 375.222 101.515 373.322 100.702 C 371.491 99.809 369.15 99.484 366.878 99.484 C 360.729 99.484 358.608 101.19099999999999 358.608 103.63499999999999 C 358.608 105.25999999999999 359.264 106.32199999999999 361.314 106.64599999999999 L 385.98400000000004 110.71399999999998 C 396.38100000000003 112.42299999999999 402.824 117.79499999999999 402.824 127.64099999999999 C 402.824 141.808 392.428 148.482 369.22 148.482 C 353.33500000000004 148.482 335.98400000000004 146.041 335.91200000000003 128.948 L 360.802 128.948 C 360.872 130.899 361.53400000000005 132.20100000000002 363 133.097 C 364.533 133.912 366.804 134.32000000000002 370.024 134.32000000000002 C 376.465 134.32000000000002 378.225 132.365 378.225 129.597 C 378.225 127.888 377.271 126.18 374.495 125.694 L 350.918 121.785 L 350.918 121.785 z" stroke-linecap="round" />
</g>
		<g transform="matrix(1 0 0 1 124.54 35.39)"  >
<polygon style="stroke: none; stroke-width: 1; stroke-dasharray: none; stroke-linecap: butt; stroke-dashoffset: 0; stroke-linejoin: miter; stroke-miterlimit: 4; fill: rgb(255,255,255); fill-rule: nonzero; opacity: 1;" vector-effect="non-scaling-stroke"  points="-10.32,-29.06 10.32,-29.06 10.32,29.06 -10.32,29.06 -10.32,-29.06 " />
</g>
		<g transform="matrix(1 0 0 1 176.34 35.39)"  >
<path style="stroke: none; stroke-width: 1; stroke-dasharray: none; stroke-linecap: butt; stroke-dashoffset: 0; stroke-linejoin: miter; stroke-miterlimit: 4; fill: rgb(255,255,255); fill-rule: nonzero; opacity: 1;" vector-effect="non-scaling-stroke"  transform=" translate(-471.68, -117.39)" d="M 506.706 123.82 C 505.38800000000003 131.471 503.04200000000003 137.65699999999998 497.91700000000003 141.888 C 492.869 146.121 484.96000000000004 148.482 472.37100000000004 148.482 C 459.85300000000007 148.482 436.646 147.503 436.646 117.392 C 436.646 87.27499999999999 459.853 86.298 472.37100000000004 86.298 C 484.81300000000005 86.298 503.99500000000006 88.087 506.706 111.124 L 483.42600000000004 111.124 C 482.84000000000003 106.969 480.34700000000004 100.947 472.37100000000004 100.947 C 463.94800000000004 100.947 458.605 105.586 458.605 117.391 C 458.605 129.193 463.80400000000003 133.829 471.344 133.829 C 477.861 133.829 481.741 130.818 483.425 123.819 L 506.706 123.819 L 506.706 123.82 z" stroke-linecap="round" />
</g>
		<g transform="matrix(1 0 0 1 252.15 35.39)"  >
<path style="stroke: none; stroke-width: 1; stroke-dasharray: none; stroke-linecap: butt; stroke-dashoffset: 0; stroke-linejoin: miter; stroke-miterlimit: 4; fill: rgb(255,255,255); fill-rule: nonzero; opacity: 1;" vector-effect="non-scaling-stroke"  transform=" translate(-547.48, -117.39)" d="M 533.717 117.393 C 533.717 105.587 539.063 100.949 547.483 100.949 C 555.9 100.949 561.247 105.588 561.247 117.393 C 561.247 129.195 555.9 133.831 547.483 133.831 C 539.063 133.83 533.717 129.194 533.717 117.393 L 533.717 117.393 z M 511.753 117.393 C 511.753 147.503 534.96 148.483 547.482 148.483 C 560.001 148.483 583.208 147.504 583.208 117.393 C 583.208 87.276 560.001 86.299 547.482 86.299 C 534.96 86.299 511.753 87.275 511.753 117.393 L 511.753 117.393 z" stroke-linecap="round" />
</g>
		<g transform="matrix(1 0 0 1 -228.85 -10.7)"  >
<path style="stroke: none; stroke-width: 1; stroke-dasharray: none; stroke-linecap: butt; stroke-dashoffset: 0; stroke-linejoin: miter; stroke-miterlimit: 4; fill: rgb(255,255,255); fill-rule: nonzero; opacity: 1;" vector-effect="non-scaling-stroke"  transform=" translate(-66.49, -71.3)" d="M 103.397 88.91 C 104.73 61.028999999999996 80.686 29.630999999999993 47.907000000000004 25.75 L 47.963 25.369 C 80.27799999999999 25.369 105.051 55.285 105.051 78.886 C 105.02 83.79899999999999 104.632 86.84299999999999 103.94 89.053 L 103.397 88.91 L 103.397 88.91 z M 101.439 92.454 C 99.28899999999999 95.08099999999999 96.585 97.726 93.41699999999999 100.237 C 87.58899999999998 66.71799999999999 62.957999999999984 37.407999999999994 45.54399999999999 28.852999999999994 L 45.17099999999999 29.112999999999996 C 62.684 43.486 83.572 71.401 91.695 101.55199999999999 C 87.809 104.416 83.317 107.05199999999999 78.354 109.192 C 61.828 90.346 46.421 54 41.456 30.936 L 40.951 31.088 C 41.063 53.476 56.958 91.482 76.342 110.02699999999999 C 72.03999999999999 111.72399999999999 67.414 113.04699999999998 62.556 113.83599999999998 C 43.974999999999994 106.47499999999998 30.749 82.89899999999999 30.749 58.74799999999998 C 30.749 42.981999999999985 35.556 33.228999999999985 36.486 31.232999999999983 L 36.089999999999996 31.075999999999983 C 34.964999999999996 32.777999999999984 27.922999999999995 42.52599999999998 27.922999999999995 59.54699999999998 C 27.922999999999995 86.84599999999998 41.385999999999996 107.71199999999999 59.25999999999999 114.28299999999999 C 53.14499999999999 114.948 46.709999999999994 114.74699999999999 40.10799999999999 113.38399999999999 L 39.97499999999999 113.79999999999998 C 41.886999999999986 114.50399999999998 48.37399999999999 117.22699999999999 58.26999999999999 117.22699999999999 C 80.65299999999999 117.22699999999999 95.78399999999999 103.32 101.87499999999999 92.749 L 101.439 92.454 L 101.439 92.454 z" stroke-linecap="round" />
</g>
		<g transform="matrix(1 0 0 1 -251.73 -50.77)"  >
<path style="stroke: none; stroke-width: 1; stroke-dasharray: none; stroke-linecap: butt; stroke-dashoffset: 0; stroke-linejoin: miter; stroke-miterlimit: 4; fill: rgb(255,255,255); fill-rule: nonzero; opacity: 1;" vector-effect="non-scaling-stroke"  transform=" translate(-43.6, -31.23)" d="M 56.032 15.518 C 39.06399999999999 15.518 19.168 27.764000000000003 19.168 38.958 C 19.168 43.288 23.128999999999998 46.946 31.326999999999998 46.946 C 50.358 46.946 68.039 33.870999999999995 68.039 23.703999999999997 C 68.039 18.354 62.901 15.518 56.032 15.518 L 56.032 15.518 z M 62.806 23.388 C 62.806 31.958000000000002 46.349 42.434 32.592 42.434 C 26.514 42.434 23.229999999999997 40.041999999999994 23.229999999999997 36.095 C 23.229999999999997 27.402 39.873999999999995 17.104 52.77799999999999 17.104 C 61.191 17.104 62.806 21.385 62.806 23.388 L 62.806 23.388 z" stroke-linecap="round" />
</g>
		<g transform="matrix(1 0 0 1 -247.73 -40.25)"  >
<path style="stroke: none; stroke-width: 1; stroke-dasharray: none; stroke-linecap: butt; stroke-dashoffset: 0; stroke-linejoin: miter; stroke-miterlimit: 4; fill: rgb(255,255,255); fill-rule: nonzero; opacity: 1;" vector-effect="non-scaling-stroke"  transform=" translate(-47.6, -41.76)" d="M 12.408 44.141 C 11.931 44.966 10.020999999999999 48.705999999999996 10.020999999999999 52.538 C 10.020999999999999 59.644999999999996 17.201999999999998 66.243 30.409999999999997 66.243 C 55.818999999999996 66.243 85.175 47.53999999999999 85.175 30.178999999999995 C 85.175 22.385999999999996 77.798 18.148999999999994 72.676 17.272999999999996 L 72.58 17.576999999999995 C 74.173 18.080999999999996 80.009 20.793999999999993 80.009 27.735999999999997 C 80.009 41.568999999999996 54.09 60.416999999999994 28.272 60.416999999999994 C 18.387999999999998 60.416999999999994 12.160999999999998 55.538 12.160999999999998 48.431 C 12.160999999999998 46.183 12.628999999999998 44.702 12.752999999999998 44.272999999999996 L 12.408 44.141 L 12.408 44.141 z" stroke-linecap="round" />
</g>
		<g transform="matrix(1 0 0 1 -241.33 -22.91)"  >
<path style="stroke: none; stroke-width: 1; stroke-dasharray: none; stroke-linecap: butt; stroke-dashoffset: 0; stroke-linejoin: miter; stroke-miterlimit: 4; fill: rgb(255,255,255); fill-rule: nonzero; opacity: 1;" vector-effect="non-scaling-stroke"  transform=" translate(-54, -59.09)" d="M 95.651 31.477 C 96.348 32.006 100.533 35.494 100.533 42.09 C 100.533 64.58 65.295 86.695 34.141999999999996 86.695 C 15.563999999999997 86.695 7.094999999999995 77.52199999999999 7.469999999999995 69.377 L 7.8029999999999955 69.377 C 8.530999999999995 73.607 14.562999999999995 81.17599999999999 30.822999999999993 81.17599999999999 C 62.01499999999999 81.17599999999999 96.842 58.29299999999999 96.842 38.243999999999986 C 96.842 34.804999999999986 95.908 32.661999999999985 95.38 31.708999999999985 L 95.651 31.477 L 95.651 31.477 z" stroke-linecap="round" />
</g>
		<g transform="matrix(1 0 0 1 -233.36 -3.31)"  >
<path style="stroke: none; stroke-width: 1; stroke-dasharray: none; stroke-linecap: butt; stroke-dashoffset: 0; stroke-linejoin: miter; stroke-miterlimit: 4; fill: rgb(255,255,255); fill-rule: nonzero; opacity: 1;" vector-effect="non-scaling-stroke"  transform=" translate(-61.97, -78.69)" d="M 107.429 52.473 C 107.575 52.952 108.334 55.105 108.334 58.477 C 108.334 83.495 72.673 104.913 41.658 104.913 C 25.695 104.913 17.359 97.15899999999999 15.599 94.00999999999999 L 15.883000000000001 93.8 C 20.3 97.663 29 100.598 39.153 100.598 C 66.545 100.598 107.418 79.758 107.053 52.564 L 107.429 52.473 L 107.429 52.473 z" stroke-linecap="round" />
</g>
</g>
</g>
</svg>